<?xml version="1.0" standalone="no"?>
<!DOCTYPE svg PUBLIC "-//W3C//DTD SVG 1.1//EN" "http://www.w3.org/Graphics/SVG/1.1/DTD/svg11.dtd" >
<svg xmlns="http://www.w3.org/2000/svg" xmlns:svg="http://www.w3.org/2000/svg" xmlns:xlink="http://www.w3.org/1999/xlink" viewBox="0 0 1024 1024"><path d="M230.5 54Q200.5 -28 261.5 27L331.5 41Q335.5 2 356.5 76Q313.5 48 315.5 100Q279.5 55 309.5 122Q279.5 90 332.5 140Q325.5 90 378.5 110Q358.5 43 405.5 76Q379.5 26 435.5 107Q424.5 78 472.5 152Q434.5 125 432.5 167H149.5Q87.5 120 85.5 176Q51.5 124 76.5 154Q42.5 84 102.5 135Q117.5 93 205.5 140Q200.5 90 230.5 116ZM539.5 64Q509.5 -19 570.5 36L600.5 40Q607.5 -7 651.5 55Q639.5 31 635.5 99Q581.5 49 616.5 123Q586.5 90 640.5 140H705.5Q699.5 90 753.5 116Q747.5 40 801.5 71Q777.5 20 836.5 92L884.5 129Q882.5 93 904.5 162Q869.5 117 868.5 167H641.5Q586.5 117 616.5 191V241Q586.5 214 643.5 264H791.5Q785.5 214 834.5 245Q824.5 175 858.5 224Q832.5 174 894.5 250Q907.5 228 928.5 302Q896.5 256 912.5 316Q867.5 274 897.5 348Q868.5 353 895.5 458Q839.5 432 831.5 471Q787.5 419 819.5 448Q789.5 385 795.5 435H641.5Q586.5 385 616.5 459V508Q586.5 483 648.5 533Q651.5 483 705.5 509Q699.5 434 753.5 463Q729.5 413 788.5 484L848.5 528Q837.5 488 855.5 556Q818.5 509 818.5 559H641.5Q586.5 509 616.5 583V632Q586.5 607 647.5 657Q648.5 607 702.5 633L717.5 618Q717.5 538 751.5 587Q725.5 537 787.5 610L847.5 654Q825.5 613 857.5 670Q826.5 629 825.5 683H641.5Q586.5 633 616.5 707V755Q586.5 730 640.5 780H665.5Q659.5 730 713.5 756L727.5 742Q727.5 662 761.5 711Q736.5 660 797.5 732Q797.5 703 857.5 777Q842.5 736 867.5 799Q826.5 761 825.5 807H642.5Q587.5 757 618.5 837Q590.5 838 654.5 900Q668.5 861 827.5 903Q829.5 852 880.5 861Q870.5 781 917.5 777Q892.5 723 929.5 773Q907.5 727 938.5 809Q909.5 792 949.5 863Q924.5 822 965.5 877Q956.5 838 984.5 915Q955.5 894 939.5 962Q799.5 946 651.5 983Q520.5 934 541.5 874L539.5 847V398Q509.5 314 571.5 384Q580.5 366 634.5 409H794.5Q789.5 359 819.5 385V316Q789.5 241 795.5 291H647.5Q586.5 245 616.5 312Q586.5 280 613.5 335Q551.5 314 542.5 345Q509.5 290 539.5 311ZM140.5 188Q114.5 134 174.5 202Q216.5 210 222.5 323Q144.5 309 155.5 292L146.5 222Q108.5 142 140.5 188ZM335.5 187Q309.5 130 368.5 183L436.5 197Q436.5 160 444.5 235Q410.5 188 428.5 241Q383.5 189 402.5 250L358.5 315Q309.5 291 363.5 341Q358.5 291 410.5 311Q391.5 244 435.5 277Q410.5 226 467.5 306L504.5 352Q468.5 325 465.5 367H117.5Q55.5 320 53.5 376Q19.5 324 44.5 354Q11.5 284 71.5 336Q60.5 287 116.5 341H278.5Q272.5 291 312.5 311Q297.5 209 335.5 187ZM369.5 432Q364.5 359 400.5 408Q377.5 359 437.5 439Q479.5 445 454.5 516Q407.5 471 437.5 543V889Q417.5 911 362.5 982Q302.5 936 323.5 956Q287.5 891 303.5 926Q234.5 844 266.5 889Q240.5 832 300.5 887Q283.5 841 327.5 892Q339.5 848 359.5 857V756Q329.5 681 335.5 731H210.5Q155.5 681 185.5 755V934Q163.5 916 170.5 979Q68.5 952 107.5 942V442Q76.5 362 138.5 427Q160.5 411 215.5 456H320.5Q314.5 406 369.5 432ZM215.5 483Q155.5 438 185.5 512V556Q155.5 531 209.5 581H334.5Q329.5 531 359.5 557V508Q329.5 433 335.5 483ZM359.5 632Q329.5 557 335.5 607H210.5Q155.5 557 185.5 631V680Q155.5 655 209.5 705H334.5Q329.5 655 359.5 681Z" fill="black"></path></svg>