<?xml version="1.0" standalone="no"?>
<!DOCTYPE svg PUBLIC "-//W3C//DTD SVG 1.1//EN" "http://www.w3.org/Graphics/SVG/1.1/DTD/svg11.dtd" >
<svg xmlns="http://www.w3.org/2000/svg" xmlns:svg="http://www.w3.org/2000/svg" xmlns:xlink="http://www.w3.org/1999/xlink" viewBox="0 0 1024 1024"><path d="M230.5 54.0Q230.5 22.0 261.5 27.0L331.5 41.0Q365.5 52.0 356.5 76.0Q343.5 98.0 315.5 100.0Q309.5 105.0 309.5 122.0Q309.5 140.0 332.5 140.0Q355.5 140.0 378.5 110.0Q388.5 93.0 405.5 76.0Q409.5 76.0 435.5 107.0Q454.5 128.0 472.5 152.0Q464.5 175.0 432.5 167.0H149.5Q117.5 170.0 85.5 176.0Q81.5 174.0 76.5 154.0Q72.5 134.0 102.5 135.0Q147.5 143.0 205.5 140.0Q230.5 140.0 230.5 116.0ZM539.5 64.0Q539.5 31.0 570.5 36.0L600.5 40.0Q637.5 43.0 651.5 55.0Q669.5 81.0 635.5 99.0Q611.5 99.0 616.5 123.0Q616.5 140.0 640.5 140.0H705.5Q729.5 140.0 753.5 116.0Q777.5 90.0 801.5 71.0Q807.5 70.0 836.5 92.0L884.5 129.0Q912.5 143.0 904.5 162.0Q899.5 167.0 868.5 167.0H641.5Q616.5 167.0 616.5 191.0V241.0Q616.5 264.0 643.5 264.0H791.5Q815.5 264.0 834.5 245.0Q854.5 225.0 858.5 224.0Q862.5 224.0 894.5 250.0Q937.5 278.0 928.5 302.0Q926.5 306.0 912.5 316.0Q897.5 324.0 897.5 348.0Q898.5 403.0 895.5 458.0Q869.5 482.0 831.5 471.0Q817.5 469.0 819.5 448.0Q819.5 435.0 795.5 435.0H641.5Q616.5 435.0 616.5 459.0V508.0Q616.5 533.0 648.5 533.0Q681.5 533.0 705.5 509.0Q729.5 484.0 753.5 463.0Q759.5 463.0 788.5 484.0L848.5 528.0Q867.5 538.0 855.5 556.0Q848.5 559.0 818.5 559.0H641.5Q616.5 559.0 616.5 583.0V632.0Q616.5 657.0 647.5 657.0Q678.5 657.0 702.5 633.0L717.5 618.0Q747.5 588.0 751.5 587.0Q755.5 587.0 787.5 610.0L847.5 654.0Q855.5 663.0 857.5 670.0Q856.5 679.0 825.5 683.0H641.5Q616.5 683.0 616.5 707.0V755.0Q616.5 780.0 640.5 780.0H665.5Q689.5 780.0 713.5 756.0L727.5 742.0Q757.5 712.0 761.5 711.0Q766.5 710.0 797.5 732.0Q827.5 753.0 857.5 777.0Q872.5 786.0 867.5 799.0Q856.5 811.0 825.5 807.0H642.5Q617.5 807.0 618.5 837.0Q620.5 888.0 654.5 900.0Q698.5 911.0 827.5 903.0Q859.5 902.0 880.5 861.0Q900.5 831.0 917.5 777.0Q922.5 773.0 929.5 773.0Q937.5 777.0 938.5 809.0Q939.5 842.0 949.5 863.0Q954.5 872.0 965.5 877.0Q986.5 888.0 984.5 915.0Q985.5 944.0 939.5 962.0Q829.5 996.0 651.5 983.0Q550.5 984.0 541.5 874.0L539.5 847.0V398.0Q539.5 364.0 571.5 384.0Q610.5 416.0 634.5 409.0H794.5Q819.5 409.0 819.5 385.0V316.0Q819.5 291.0 795.5 291.0H647.5Q616.5 295.0 616.5 312.0Q616.5 330.0 613.5 335.0Q581.5 364.0 542.5 345.0Q539.5 340.0 539.5 311.0ZM140.5 188.0Q144.5 184.0 174.5 202.0Q246.5 260.0 222.5 323.0Q174.5 359.0 155.5 292.0L146.5 222.0Q138.5 192.0 140.5 188.0ZM335.5 187.0Q339.5 180.0 368.5 183.0L436.5 197.0Q466.5 210.0 444.5 235.0Q440.5 238.0 428.5 241.0Q413.5 239.0 402.5 250.0L358.5 315.0Q339.5 341.0 363.5 341.0Q388.5 341.0 410.5 311.0Q421.5 294.0 435.5 277.0Q440.5 276.0 467.5 306.0L504.5 352.0Q498.5 375.0 465.5 367.0H117.5Q85.5 370.0 53.5 376.0Q49.5 374.0 44.5 354.0Q41.5 334.0 71.5 336.0Q90.5 337.0 116.5 341.0H278.5Q302.5 341.0 312.5 311.0Q327.5 259.0 335.5 187.0ZM369.5 432.0Q394.5 409.0 400.5 408.0Q407.5 409.0 437.5 439.0Q509.5 495.0 454.5 516.0Q437.5 521.0 437.5 543.0V889.0Q447.5 961.0 362.5 982.0Q332.5 986.0 323.5 956.0Q317.5 941.0 303.5 926.0Q264.5 894.0 266.5 889.0Q270.5 882.0 300.5 887.0Q313.5 891.0 327.5 892.0Q369.5 898.0 359.5 857.0V756.0Q359.5 731.0 335.5 731.0H210.5Q185.5 731.0 185.5 755.0V934.0Q193.5 966.0 170.5 979.0Q98.5 1002.0 107.5 942.0V442.0Q106.5 412.0 138.5 427.0Q190.5 461.0 215.5 456.0H320.5Q344.5 456.0 369.5 432.0ZM215.5 483.0Q185.5 488.0 185.5 512.0V556.0Q185.5 581.0 209.5 581.0H334.5Q359.5 581.0 359.5 557.0V508.0Q359.5 483.0 335.5 483.0ZM359.5 632.0Q359.5 607.0 335.5 607.0H210.5Q185.5 607.0 185.5 631.0V680.0Q185.5 705.0 209.5 705.0H334.5Q359.5 705.0 359.5 681.0Z" fill="black"></path></svg>